<svg data-v-0dd9719b="" version="1.0" xmlns="http://www.w3.org/2000/svg" xmlns:xlink="http://www.w3.org/1999/xlink" width="100%" height="100%" viewBox="0 0 340.000000 250.000000" preserveAspectRatio="xMidYMid meet" color-interpolation-filters="sRGB" style="margin: auto;"> <rect data-v-0dd9719b="" x="0" y="0" width="100%" height="100%" fill="#ffffff" fill-opacity="1" class="background"></rect> <rect data-v-0dd9719b="" x="0" y="0" width="100%" height="100%" fill="url(#watermark)" fill-opacity="1" class="watermarklayer"></rect> <g data-v-0dd9719b="" fill="#93339e" class="icon-text-wrapper icon-svg-group iconsvg" transform="translate(48.18499755859375,94.78304290771484)"><g class="iconsvg-imagesvg" transform="translate(0,0)"><g><rect fill="#93339e" fill-opacity="0" stroke-width="2" x="0" y="0" width="60" height="60.43391551338611" class="image-rect"></rect> <svg filter="url(#colors3500852332)" x="0" y="0" width="60" height="60.43391551338611" filtersec="colorsf775991759" class="image-svg-svg primary" style="overflow: visible;"><svg xmlns="http://www.w3.org/2000/svg" viewBox="8 8 156.2 157.3"><g><g><path d="M148.4 126.65L162 113.1M10 65.05L39.05 36M64 10v1m48 152.05l-.6-.4m-100.2-48.8l.2-.2m19.35 30.6l27.65-27.6m-20-30l74.35-74.4M61.7 163.3L162.2 62.8M85.4 89.65l57.8-57.8" fill="none" stroke="#000000" stroke-linecap="round" stroke-miterlimit="3" stroke-width="20"></path></g></g></svg></svg> <defs><filter id="colors3500852332"><feColorMatrix type="matrix" values="0 0 0 0 0.26953125  0 0 0 0 0.04296875  0 0 0 0 0.40625  0 0 0 1 0" class="icon-fecolormatrix"></feColorMatrix></filter> <filter id="colorsf775991759"><feColorMatrix type="matrix" values="0 0 0 0 0.99609375  0 0 0 0 0.99609375  0 0 0 0 0.99609375  0 0 0 1 0" class="icon-fecolormatrix"></feColorMatrix></filter> <filter id="colorsb242483971"><feColorMatrix type="matrix" values="0 0 0 0 0  0 0 0 0 0  0 0 0 0 0  0 0 0 1 0" class="icon-fecolormatrix"></feColorMatrix></filter></defs></g></g> <g transform="translate(67,14.486957550048828)"><g data-gra="path-name" fill-rule="" class="tp-name iconsvg-namesvg"><g transform="scale(1)"><g><path d="M14.68 0.26Q12.85 0.26 11.93-1.79L11.93-1.79 1.14-27.97Q1.01-28.32 1.01-28.71L1.01-28.71Q1.01-29.63 1.55-30.2 2.1-30.76 3.02-30.76L3.02-30.76Q3.67-30.76 4.17-30.39 4.68-30.02 4.94-29.37L4.94-29.37 14.81-4.72Q14.95-4.41 15.16-4.41L15.16-4.41Q15.38-4.41 15.51-4.72L15.51-4.72 25.39-29.37Q25.65-30.02 26.15-30.39 26.66-30.76 27.31-30.76L27.31-30.76Q28.23-30.76 28.78-30.2 29.32-29.63 29.32-28.71L29.32-28.71Q29.32-28.32 29.19-27.97L29.19-27.97 18.4-1.79Q17.48 0.26 15.64 0.26L15.64 0.26 14.68 0.26ZM32.56 0.26Q31.68 0.26 31.11-0.33 30.55-0.92 30.55-1.75L30.55-1.75Q30.55-2.05 30.76-2.62L30.76-2.62 41.91-28.93Q42.3-29.8 42.96-30.28 43.61-30.76 44.49-30.76L44.49-30.76 44.92-30.76Q45.8-30.76 46.45-30.28 47.11-29.8 47.5-28.93L47.5-28.93 58.65-2.62Q58.86-2.05 58.86-1.75L58.86-1.75Q58.86-0.92 58.3-0.33 57.73 0.26 56.85 0.26L56.85 0.26Q56.2 0.26 55.7-0.07 55.19-0.39 54.93-1.01L54.93-1.01 52.09-7.78 37.32-7.78 34.48-1.01Q34.22-0.39 33.71-0.07 33.21 0.26 32.56 0.26L32.56 0.26ZM45.05-24.73Q44.92-25.04 44.71-25.04L44.71-25.04Q44.49-25.04 44.36-24.73L44.36-24.73 38.85-11.49 50.56-11.49 45.05-24.73ZM74.86 0.48Q69.31 0.48 64.46-1.62L64.46-1.62Q63.93-1.84 63.56-2.36 63.19-2.88 63.19-3.45L63.19-3.45Q63.19-4.24 63.71-4.79 64.24-5.33 65.03-5.33L65.03-5.33Q65.51-5.33 65.86-5.16L65.86-5.16Q69.92-3.36 74.46-3.36L74.46-3.36Q82.07-3.36 82.07-8.35L82.07-8.35Q82.07-9.66 81.11-10.49L81.11-10.49Q80.23-11.32 78.92-11.8 77.61-12.28 74.6-13.07L74.6-13.07Q71.14-13.94 68.87-14.86L68.87-14.86Q66.21-15.86 64.85-17.68 63.5-19.49 63.5-21.98L63.5-21.98Q63.5-24.47 64.81-26.57L64.81-26.57Q66.16-28.71 68.81-29.85 71.45-30.98 74.86-30.98L74.86-30.98Q79.66-30.98 83.55-29.54L83.55-29.54Q84.82-29.06 84.82-27.75L84.82-27.75Q84.82-27.05 84.3-26.46 83.77-25.87 83.03-25.87L83.03-25.87Q82.72-25.87 82.33-26.05L82.33-26.05Q78.92-27.23 75.29-27.23L75.29-27.23Q71.8-27.23 69.68-25.91 67.56-24.6 67.56-22.29L67.56-22.29Q67.56-20.71 68.61-19.8L68.61-19.8Q69.57-18.88 71.01-18.31 72.45-17.74 75.34-17.09L75.34-17.09Q79.01-16.21 80.93-15.43L80.93-15.43Q83.25-14.55 84.67-12.72 86.09-10.88 86.09-8.08L86.09-8.08Q86.09-5.68 84.69-3.67L84.69-3.67Q83.25-1.66 80.69-0.59 78.14 0.48 74.86 0.48L74.86 0.48ZM92.08 0.26Q91.2 0.26 90.63-0.33 90.07-0.92 90.07-1.75L90.07-1.75Q90.07-2.05 90.28-2.62L90.28-2.62 101.43-28.93Q101.82-29.8 102.48-30.28 103.13-30.76 104.01-30.76L104.01-30.76 104.44-30.76Q105.32-30.76 105.97-30.28 106.63-29.8 107.02-28.93L107.02-28.93 118.16-2.62Q118.38-2.05 118.38-1.75L118.38-1.75Q118.38-0.92 117.82-0.33 117.25 0.26 116.37 0.26L116.37 0.26Q115.72 0.26 115.21-0.07 114.71-0.39 114.45-1.01L114.45-1.01 111.61-7.78 96.84-7.78 94-1.01Q93.74-0.39 93.23-0.07 92.73 0.26 92.08 0.26L92.08 0.26ZM104.57-24.73Q104.44-25.04 104.22-25.04L104.22-25.04Q104.01-25.04 103.87-24.73L103.87-24.73 98.37-11.49 110.08-11.49 104.57-24.73ZM131.89 0.26Q131.06 0.26 130.44-0.33 129.83-0.92 129.83-1.75L129.83-1.75 129.83-12.89 119.39-27.49Q119.04-28.19 119.04-28.71L119.04-28.71Q119.04-29.54 119.61-30.15 120.17-30.76 121.01-30.76L121.01-30.76Q122.14-30.76 122.8-29.76L122.8-29.76 131.89-16.52 140.98-29.76Q141.63-30.76 142.77-30.76L142.77-30.76Q143.55-30.76 144.14-30.17 144.73-29.58 144.73-28.8L144.73-28.8Q144.73-28.27 144.38-27.49L144.38-27.49 133.9-12.89 133.9-1.75Q133.9-0.92 133.31-0.33 132.72 0.26 131.89 0.26L131.89 0.26ZM162.26 0.48Q157.67 0.48 154.17-1.53L154.17-1.53Q150.76-3.54 148.86-7.1 146.96-10.66 146.88-15.25L146.88-15.25Q146.96-19.84 148.84-23.38L148.84-23.38Q150.72-26.96 154.22-28.97 157.71-30.98 162.26-30.98L162.26-30.98Q166.85-30.98 170.34-28.97L170.34-28.97Q173.75-26.96 175.65-23.38 177.55-19.8 177.64-15.25L177.64-15.25Q177.55-10.71 175.67-7.17L175.67-7.17Q173.75-3.54 170.28-1.53 166.8 0.48 162.26 0.48L162.26 0.48ZM162.26-3.32Q165.8-3.32 168.29-4.89L168.29-4.89Q170.82-6.42 172.2-9.11 173.58-11.8 173.58-15.25L173.58-15.25Q173.58-18.66 172.22-21.37L172.22-21.37Q170.82-24.12 168.24-25.65 165.67-27.18 162.26-27.18L162.26-27.18Q158.72-27.18 156.23-25.61L156.23-25.61Q153.69-24.08 152.32-21.39 150.94-18.7 150.94-15.25L150.94-15.25Q150.94-11.84 152.29-9.13L152.29-9.13Q153.69-6.34 156.25-4.83 158.81-3.32 162.26-3.32L162.26-3.32Z" transform="translate(-1.0099999904632568, 30.979999542236328)"></path></g> <!----> <!----> <!----> <!----> <!----> <!----> <!----></g></g> <!----></g></g><defs v-gra="od"></defs></svg>